<!DOCTYPE svg PUBLIC "-//W3C//DTD SVG 20010904//EN" "http://www.w3.org/TR/2001/REC-SVG-20010904/DTD/svg10.dtd">
<svg version="1.0" xmlns="http://www.w3.org/2000/svg" width="1800px" height="776px" viewBox="0 0 12000 5170" preserveAspectRatio="xMidYMid meet">
<g id="layer101" fill="#1a2a49" stroke="none">
 <path d="M0 2585 l0 -2585 6000 0 6000 0 0 2585 0 2585 -6000 0 -6000 0 0 -2585z"/>
 </g>
<g id="layer102" fill="#eee151" stroke="none">
 <path d="M0 2585 l0 -2585 6000 0 6000 0 0 2585 0 2585 -6000 0 -6000 0 0 -2585z m3245 1919 c67 -23 154 -112 180 -184 29 -80 26 -170 -8 -240 -14 -30 -34 -65 -43 -77 l-16 -23 752 0 752 0 -16 23 c-53 74 -61 99 -61 202 0 79 4 107 19 135 37 69 86 118 148 149 53 27 72 31 143 31 71 0 90 -4 143 -30 112 -57 172 -153 172 -280 0 -59 -6 -86 -26 -130 -31 -68 -84 -124 -146 -156 -27 -13 -48 -31 -48 -39 0 -28 -24 -67 -51 -81 -24 -12 -203 -14 -1185 -14 -1078 0 -1156 -1 -1150 -17 8 -20 166 -305 175 -315 3 -4 516 -57 1140 -118 624 -61 1144 -116 1157 -120 48 -19 42 4 164 -630 28 -146 55 -285 60 -310 5 -25 32 -164 60 -310 28 -146 64 -332 81 -415 34 -175 35 -201 9 -235 l-19 -25 -1626 -5 -1627 -5 -13 -40 c-7 -22 -38 -120 -69 -217 -45 -141 -61 -181 -82 -197 -26 -20 -38 -21 -386 -21 l-360 0 -29 29 c-47 48 -38 116 21 146 24 12 81 15 328 15 l300 0 10 28 c6 15 33 99 61 187 27 88 81 261 120 385 38 124 133 430 211 680 196 628 305 977 323 1028 l15 43 -149 259 c-89 155 -149 269 -149 285 0 16 12 38 29 56 l29 29 151 0 c83 0 151 3 151 6 0 3 -12 21 -26 39 -55 73 -70 202 -34 298 28 74 79 130 152 166 52 27 72 31 138 31 45 0 96 -7 125 -16z m3218 -1351 c4 -58 7 -140 7 -182 0 -42 3 -100 7 -130 l6 -53 71 6 c39 4 112 15 161 25 50 10 93 16 96 12 4 -3 37 -116 74 -251 37 -135 94 -339 126 -455 32 -115 56 -211 54 -213 -7 -8 -455 371 -449 379 3 5 10 9 16 9 31 0 118 33 118 45 0 26 -63 240 -72 246 -5 3 -30 2 -56 -2 -26 -4 -66 -8 -89 -8 l-43 -1 0 -72 c0 -40 5 -165 10 -278 5 -113 10 -245 11 -295 3 -131 3 -131 83 -127 50 3 66 1 66 -10 0 -7 -41 -110 -91 -228 -50 -118 -104 -250 -121 -293 -17 -42 -34 -77 -38 -77 -6 0 -280 576 -280 590 0 4 10 7 23 7 12 1 43 1 70 2 l47 1 0 384 0 383 -61 7 c-105 11 -137 8 -143 -11 -7 -27 -48 -216 -50 -233 -1 -10 19 -20 67 -31 38 -10 70 -19 73 -21 3 -4 -119 -119 -383 -362 -55 -50 -59 -48 -43 19 6 22 33 139 60 260 27 121 70 309 94 419 25 109 47 200 48 201 2 1 37 -3 78 -10 41 -7 116 -15 165 -17 l90 -3 3 238 2 237 94 0 93 0 6 -107z m4114 -596 c86 -45 83 -135 -5 -168 -15 -6 -67 -13 -117 -16 -105 -7 -144 -18 -127 -35 8 -8 39 -11 85 -10 81 3 127 -11 170 -54 55 -55 51 -144 -9 -192 -40 -32 -30 -52 27 -52 43 0 56 -12 34 -30 -18 -15 -58 -6 -97 22 -22 15 -37 18 -64 13 -78 -14 -162 17 -206 76 -32 43 -27 112 12 160 l31 39 -31 26 c-27 23 -31 32 -28 67 4 58 41 77 165 89 142 13 173 39 67 59 -54 10 -147 -2 -193 -25 -37 -20 -41 -20 -41 -1 0 16 30 34 75 46 51 14 216 4 252 -14z m-2947 -117 c26 -16 2 -23 -75 -21 l-75 2 0 -170 0 -171 65 0 c51 0 65 -3 65 -15 0 -12 -14 -15 -65 -15 l-65 0 0 -61 0 -62 80 6 c66 5 80 4 80 -8 0 -13 -28 -15 -180 -15 l-180 0 0 263 c0 145 3 267 7 270 10 11 326 8 343 -3z m147 -60 c32 -38 60 -70 63 -70 4 0 24 30 45 66 21 36 44 68 50 71 7 2 46 3 89 1 l77 -3 -67 -110 c-36 -60 -69 -116 -71 -123 -3 -7 18 -42 46 -78 46 -60 64 -104 43 -104 -4 0 -30 31 -57 70 -28 38 -52 70 -55 70 -3 0 -23 -29 -44 -65 l-38 -65 -84 0 c-46 0 -84 2 -84 5 0 2 29 53 65 114 36 60 65 112 65 115 0 4 -29 42 -65 85 -36 43 -65 82 -65 85 0 3 7 6 15 6 8 0 41 -31 72 -70z m666 57 c35 -15 64 -44 53 -54 -3 -4 -23 3 -44 14 -43 24 -111 37 -130 25 -9 -6 -12 -50 -10 -183 l3 -174 53 1 c29 1 63 9 77 18 36 23 59 22 45 -4 -15 -28 -110 -54 -168 -45 -83 12 -158 65 -181 128 -26 68 -6 173 42 226 52 56 182 80 260 48z m307 -139 l0 -151 40 -39 c23 -21 50 -38 60 -38 19 0 20 10 22 188 l3 187 83 3 82 3 0 -156 c0 -169 -9 -211 -52 -239 -55 -36 -140 -28 -196 19 -16 13 -32 22 -36 18 -3 -3 -6 -46 -6 -95 l0 -88 -80 0 -80 0 0 270 0 270 80 0 80 0 0 -152z m636 140 c22 -10 28 -10 32 0 2 8 29 12 83 12 l79 0 0 -147 c0 -179 -9 -205 -84 -242 -38 -19 -65 -24 -125 -25 -108 0 -190 26 -178 58 6 14 10 13 41 -4 38 -23 120 -36 160 -26 24 6 26 11 26 57 l0 51 -42 -8 c-140 -27 -241 32 -241 138 0 91 63 148 165 148 31 0 69 -6 84 -12z m482 -150 l3 -157 30 -25 c17 -14 37 -26 45 -26 8 0 17 0 22 0 4 0 9 82 12 182 l5 183 80 0 80 0 3 -145 c3 -161 -5 -209 -44 -239 -53 -42 -144 -35 -203 15 l-30 25 -3 -28 c-3 -28 -4 -28 -85 -31 l-83 -3 0 199 c0 109 3 202 7 206 4 4 41 5 83 4 l75 -3 3 -157z m1150 147 c55 -24 104 -75 71 -75 -6 0 -26 12 -44 26 -40 30 -106 48 -147 39 l-29 -7 3 -76 3 -77 125 -5 125 -5 -2 -47 c-2 -62 -32 -111 -91 -146 -39 -22 -59 -27 -112 -26 -78 0 -136 28 -184 87 -29 36 -31 44 -31 122 0 78 2 86 31 121 46 57 104 84 181 84 35 0 80 -7 101 -15z"/>
 <path d="M4016 2470 c-31 -10 -62 -35 -79 -65 -7 -11 -14 -83 -17 -165 -5 -141 -6 -145 -28 -148 -26 -4 -45 -33 -36 -57 4 -9 19 -19 35 -22 22 -4 29 -11 29 -28 0 -18 17 -30 96 -66 53 -24 101 -45 105 -47 5 -2 9 28 9 67 l0 71 38 0 c49 0 75 19 70 51 -3 21 -8 24 -55 27 l-53 3 0 150 c0 128 2 149 15 149 9 0 24 -14 33 -30 20 -36 47 -47 69 -28 14 11 15 10 8 -12 -15 -48 -8 -137 15 -185 49 -101 177 -149 304 -114 51 14 128 91 144 145 76 256 -247 426 -422 223 -34 -40 -36 -41 -36 -18 0 73 -141 129 -244 99z m164 -40 c51 -26 82 -80 45 -80 -8 0 -15 4 -15 9 0 16 -50 59 -75 63 l-25 5 0 -178 0 -178 53 -3 c28 -2 52 -7 52 -13 0 -5 -24 -11 -52 -13 l-53 -3 0 -65 c0 -35 -2 -64 -5 -64 -2 0 -39 15 -82 34 -71 31 -78 37 -81 65 -3 27 -7 31 -33 31 -38 0 -34 24 3 28 l26 3 4 149 c3 132 5 152 24 177 11 15 32 34 45 40 38 20 124 16 169 -7z m398 5 c49 -21 81 -52 103 -100 22 -47 25 -132 5 -178 -45 -109 -192 -155 -306 -97 -147 75 -146 295 2 369 52 25 142 28 196 6z"/>
 <path d="M4477 2424 c-12 -12 -8 -352 3 -359 24 -15 93 8 131 42 46 42 63 88 57 158 -7 85 -60 140 -153 159 -17 4 -34 4 -38 0z m76 -38 c47 -19 85 -68 92 -120 13 -82 -53 -176 -122 -176 -23 0 -23 1 -23 155 0 100 4 155 10 155 6 0 25 -6 43 -14z"/>
 <path d="M2850 2214 l0 -257 -51 5 c-64 6 -99 -15 -80 -50 6 -12 22 -24 34 -27 12 -3 121 -4 242 -3 l220 3 3 24 c5 33 -21 51 -75 51 l-43 0 0 255 0 255 -125 0 -125 0 0 -256z m222 -21 l3 -258 58 -5 c31 -3 56 -9 55 -14 -4 -12 -430 -7 -443 5 -11 11 -7 12 70 13 l60 1 3 258 2 257 95 0 95 0 2 -257z"/>
 <path d="M3252 2243 l3 -228 103 -3 c97 -3 104 -1 109 18 5 20 5 20 33 0 33 -24 83 -26 103 -5 13 13 16 13 21 -1 5 -12 24 -14 108 -12 l103 3 3 228 2 227 -110 0 -110 0 0 -186 c0 -146 -3 -184 -12 -177 -7 4 -31 10 -53 13 -35 4 -43 10 -60 45 -16 33 -21 64 -23 173 l-4 132 -109 0 -109 0 2 -227z m190 85 c5 -122 13 -156 51 -211 16 -24 24 -27 48 -22 28 6 59 -7 59 -26 0 -12 -30 -39 -45 -39 -21 0 -74 49 -95 89 l-19 36 -1 -57 0 -58 -80 0 -80 0 0 205 0 205 79 0 78 0 5 -122z m368 -83 l0 -205 -80 0 -80 0 0 205 0 205 80 0 80 0 0 -205z"/>
 <path d="M4774 2457 c-2 -7 -3 -109 -2 -227 l3 -215 108 -3 c91 -2 107 0 107 13 0 18 -1 18 43 0 47 -19 130 -19 168 0 62 32 69 60 69 263 l0 182 -105 0 -105 0 -2 -186 -3 -187 -32 27 -33 28 0 159 0 159 -105 0 c-76 0 -107 -4 -111 -13z m194 -169 l3 -157 30 -25 c17 -14 37 -26 45 -26 8 0 17 0 22 0 4 0 9 82 12 182 l5 183 80 0 80 0 3 -145 c3 -161 -5 -209 -44 -239 -53 -42 -144 -35 -203 15 l-30 25 -3 -28 c-3 -28 -4 -28 -85 -31 l-83 -3 0 199 c0 109 3 202 7 206 4 4 41 5 83 4 l75 -3 3 -157z"/>
 <path d="M3670 1983 c-93 -48 -50 -158 61 -156 78 1 121 45 105 108 -14 53 -104 80 -166 48z m125 -38 c14 -13 25 -29 25 -35 0 -6 -11 -22 -25 -35 -18 -19 -35 -25 -65 -25 -30 0 -47 6 -65 25 -30 29 -31 35 -4 69 29 36 99 37 134 1z"/>
 <path d="M6747 2774 c-3 -3 10 -50 30 -103 19 -53 68 -188 109 -301 41 -112 77 -206 81 -210 7 -6 10 -16 -76 280 -98 336 -100 340 -120 340 -10 0 -20 -3 -24 -6z"/>
 <path d="M5974 2173 c-42 -54 -82 -105 -88 -113 -6 -8 39 32 99 89 61 57 112 108 113 112 2 5 -7 9 -21 9 -19 0 -42 -21 -103 -97z"/>
 <path d="M6970 2140 c0 -7 3 -10 7 -7 3 4 3 10 0 14 -4 3 -7 0 -7 -7z"/>
 <path d="M6546 1718 c-38 -132 -77 -290 -73 -294 3 -4 137 326 137 340 0 3 -11 6 -24 6 -21 0 -27 -8 -40 -52z"/>
 <path d="M6460 1400 c0 -7 3 -10 7 -7 3 4 3 10 0 14 -4 3 -7 0 -7 -7z"/>
 <path d="M10440 2185 c0 -112 2 -125 18 -125 30 1 99 37 116 61 20 29 21 98 1 125 -15 22 -61 47 -107 58 l-28 6 0 -125z"/>
 <path d="M9310 2305 c0 -81 4 -125 11 -125 5 0 30 5 55 11 l44 11 0 94 c0 92 0 94 -27 107 -16 8 -40 17 -55 21 l-28 6 0 -125z"/>
 <path d="M10874 2217 c-3 -8 -4 -45 -2 -83 l3 -69 50 0 50 0 3 83 3 82 -51 0 c-33 0 -52 -5 -56 -13z"/>
 </g>
<g id="layer103" fill="#ffffff" stroke="none">
 <path d="M0 2585 l0 -2585 6000 0 6000 0 0 2585 0 2585 -6000 0 -6000 0 0 -2585z m3258 1915 c134 -59 213 -215 182 -359 -7 -34 -26 -82 -41 -107 -16 -24 -29 -47 -29 -49 0 -3 333 -5 741 -5 407 0 739 3 737 8 -1 4 -18 37 -37 74 -28 56 -34 80 -35 135 -1 132 66 243 182 300 48 24 69 28 137 28 96 -1 151 -22 219 -85 66 -61 97 -133 97 -223 0 -135 -59 -235 -178 -299 -31 -16 -43 -29 -43 -45 0 -12 -11 -35 -24 -50 l-24 -28 -1171 -3 c-644 -1 -1171 -4 -1171 -6 0 -3 41 -78 90 -168 l91 -164 122 -12 c469 -46 1584 -156 1906 -188 140 -14 262 -29 271 -34 47 -25 41 -1 160 -620 28 -146 55 -285 60 -310 5 -25 32 -164 60 -310 28 -146 64 -332 81 -415 34 -176 36 -214 10 -246 l-19 -24 -1628 -5 -1627 -5 -18 -60 c-68 -235 -113 -362 -137 -388 l-26 -27 -359 0 c-253 0 -365 3 -380 12 -34 18 -46 40 -47 81 0 29 7 45 29 68 l29 29 310 0 310 0 21 62 c21 66 70 224 191 613 39 127 93 300 120 385 27 85 81 259 120 385 117 376 168 540 226 722 30 94 54 176 54 182 0 6 -65 125 -145 265 -83 145 -145 264 -145 279 0 14 12 39 26 56 l26 31 155 0 155 0 -16 23 c-53 74 -61 99 -61 202 0 89 3 106 27 151 43 81 118 139 213 165 47 13 151 2 203 -21z m-1115 -1211 c30 -13 57 -59 57 -94 0 -16 -12 -38 -29 -56 l-29 -29 -382 0 -382 0 -29 29 c-47 47 -34 127 25 151 32 13 740 12 769 -1z m4351 -238 l8 -233 72 7 c39 3 103 14 141 22 129 29 110 52 186 -222 148 -533 202 -731 203 -745 2 -32 -34 -18 -105 42 -41 35 -155 130 -252 211 -97 82 -177 155 -177 162 0 13 14 19 108 44 23 7 42 15 42 19 0 4 -13 52 -28 107 l-29 100 -34 -3 c-19 -1 -52 -5 -73 -8 l-39 -6 7 -192 c15 -434 18 -502 22 -515 3 -10 19 -13 68 -9 35 3 70 2 77 -3 14 -8 7 -26 -170 -448 -49 -117 -94 -218 -100 -224 -7 -7 -14 -8 -21 -1 -20 20 -311 647 -303 655 4 4 33 9 63 10 99 5 92 -11 86 178 -3 91 -5 253 -5 359 l-1 192 -73 0 -73 0 -22 -93 c-12 -51 -22 -100 -22 -109 0 -10 18 -19 58 -27 85 -18 92 -21 92 -36 0 -21 -479 -457 -498 -453 -21 4 -22 0 44 293 121 540 162 716 166 720 2 3 38 -2 79 -9 41 -8 113 -17 162 -21 l87 -7 0 235 0 236 28 4 c15 2 70 4 122 3 l95 -1 9 -234z m-4345 -274 c14 -6 33 -27 44 -44 16 -28 17 -38 7 -68 -23 -69 23 -65 -781 -65 l-727 0 -31 26 c-50 42 -41 117 17 148 23 13 130 15 737 15 545 1 716 -2 734 -12z m8385 -182 c69 -18 100 -39 121 -83 32 -64 -10 -129 -98 -153 l-42 -11 30 -15 c104 -53 133 -145 75 -237 -27 -42 -28 -47 -11 -41 45 14 81 -41 49 -73 -18 -18 -79 -14 -114 7 -21 13 -56 20 -110 23 -134 6 -203 59 -212 161 -3 44 0 58 23 91 l26 39 -21 22 c-33 35 -37 90 -11 126 l22 30 -22 18 c-83 67 134 138 295 96z m-2805 -124 c10 -6 37 -35 61 -65 23 -31 46 -53 51 -51 4 3 22 30 39 60 l31 55 115 0 c63 0 114 -2 114 -4 0 -3 -34 -61 -75 -129 -41 -69 -75 -128 -75 -131 0 -4 23 -36 50 -72 51 -67 59 -91 38 -112 -26 -26 -53 -13 -88 40 -19 29 -40 53 -45 55 -6 2 -25 -22 -43 -52 l-33 -55 -115 0 c-63 0 -113 3 -111 8 2 4 37 62 77 129 l73 123 -42 53 c-58 76 -79 93 -93 79 -7 -7 -42 -12 -85 -12 l-74 0 3 -142 3 -143 56 -1 c63 -1 79 -8 79 -32 0 -36 -17 -46 -77 -47 -58 0 -58 0 -58 -30 l0 -30 68 -1 c70 -2 97 -14 97 -45 0 -33 -33 -39 -224 -39 l-186 0 0 295 0 295 188 0 c103 0 193 -4 201 -9 9 -6 19 -4 28 5 17 16 28 17 52 5z m739 -20 c46 -24 65 -44 60 -67 -7 -35 -33 -39 -89 -11 -29 15 -63 27 -76 27 l-23 0 0 -155 0 -155 31 0 c16 0 48 10 69 23 31 17 43 20 57 11 67 -42 -24 -113 -145 -114 -100 0 -183 45 -224 123 -33 63 -31 167 4 228 49 83 130 122 235 114 34 -2 80 -13 101 -24z m1035 19 l107 0 0 -142 c0 -79 -5 -161 -11 -183 -24 -87 -108 -135 -239 -135 -128 0 -218 47 -190 99 14 26 40 27 82 1 22 -13 51 -20 86 -20 47 0 52 2 52 23 0 20 -4 22 -53 19 -133 -9 -227 63 -227 173 0 111 90 181 220 170 36 -3 113 -5 173 -5z m1504 -5 c67 -20 116 -65 111 -102 -4 -39 -41 -43 -77 -9 -31 29 -71 46 -112 46 -29 0 -29 0 -29 -60 l0 -60 125 0 125 0 0 -55 c0 -126 -95 -216 -227 -215 -108 1 -189 48 -229 134 -91 196 94 386 313 321z m-2227 -152 c0 -157 0 -157 27 -185 15 -15 30 -28 35 -28 4 0 8 83 8 185 l0 185 105 0 105 0 0 -182 c0 -203 -7 -231 -69 -263 -38 -19 -121 -19 -168 0 -19 8 -37 15 -39 15 -2 0 -4 -36 -4 -80 l0 -80 -105 0 -105 0 0 295 0 295 105 0 105 0 0 -157z m1110 -2 l0 -159 33 -28 32 -27 3 187 2 186 105 0 105 0 0 -182 c0 -203 -7 -231 -69 -263 -38 -19 -121 -19 -168 0 -19 8 -37 15 -39 15 -2 0 -4 -7 -4 -15 0 -12 -18 -15 -105 -15 l-105 0 0 230 0 230 105 0 105 0 0 -159z m-7865 -175 c35 -35 42 -72 21 -111 -10 -18 -29 -38 -42 -44 -17 -7 -139 -11 -379 -11 l-353 0 -30 25 c-17 14 -33 39 -37 55 -7 32 15 83 42 99 11 7 155 11 386 11 l368 0 24 -24z m-89 -690 c42 -42 45 -82 8 -125 l-26 -31 -613 0 -613 0 -31 26 c-24 20 -31 34 -31 63 0 41 22 78 54 91 11 5 290 9 619 9 l599 1 34 -34z"/>
 <path d="M10355 2520 c-13 -6 2 -7 40 -3 33 3 62 7 64 9 9 8 -85 2 -104 -6z"/>
 <path d="M10460 2184 l0 -96 28 6 c35 8 82 59 82 89 0 32 -27 67 -66 83 -18 8 -36 14 -39 14 -3 0 -5 -43 -5 -96z"/>
 <path d="M9330 2305 c0 -99 3 -105 44 -89 13 5 16 22 16 85 0 76 -1 80 -26 89 -14 6 -27 10 -30 10 -2 0 -4 -43 -4 -95z"/>
 <path d="M10900 2145 c0 -54 0 -55 30 -55 30 0 30 1 30 55 0 54 0 55 -30 55 -30 0 -30 -1 -30 -55z"/>
 </g>

</svg>